G04*
G04 #@! TF.GenerationSoftware,Altium Limited,Altium Designer,18.1.6 (161)*
G04*
G04 Layer_Color=8388736*
%FSLAX44Y44*%
%MOMM*%
G71*
G01*
G75*
%ADD23R,0.8000X1.2000*%
%ADD24R,0.7000X1.5500*%
G04:AMPARAMS|DCode=25|XSize=0.7mm|YSize=1.55mm|CornerRadius=0.225mm|HoleSize=0mm|Usage=FLASHONLY|Rotation=180.000|XOffset=0mm|YOffset=0mm|HoleType=Round|Shape=RoundedRectangle|*
%AMROUNDEDRECTD25*
21,1,0.7000,1.1000,0,0,180.0*
21,1,0.2500,1.5500,0,0,180.0*
1,1,0.4500,-0.1250,0.5500*
1,1,0.4500,0.1250,0.5500*
1,1,0.4500,0.1250,-0.5500*
1,1,0.4500,-0.1250,-0.5500*
%
%ADD25ROUNDEDRECTD25*%
%ADD26R,1.0000X1.1500*%
%ADD27R,1.7000X4.4000*%
%ADD28R,1.6000X0.9500*%
%ADD29R,0.9500X1.6000*%
%ADD30C,2.0000*%
%ADD31R,2.0000X2.0000*%
%ADD32R,2.0000X2.0000*%
D23*
X162000Y97000D02*
D03*
X143000D02*
D03*
X152500Y73000D02*
D03*
X125050Y96900D02*
D03*
X106050D02*
D03*
X115550Y72900D02*
D03*
D24*
X185250Y77750D02*
D03*
D25*
X191750D02*
D03*
X198250D02*
D03*
X204750D02*
D03*
X185250Y122250D02*
D03*
X191750D02*
D03*
X198250D02*
D03*
X204750D02*
D03*
D26*
X144750Y55000D02*
D03*
X160250D02*
D03*
X144750Y112500D02*
D03*
X160250D02*
D03*
X124100Y55000D02*
D03*
X108600D02*
D03*
X108600Y112500D02*
D03*
X124100D02*
D03*
X144750Y142500D02*
D03*
X160250D02*
D03*
X174750D02*
D03*
X190250D02*
D03*
X192750Y55000D02*
D03*
X177250D02*
D03*
X144750Y127500D02*
D03*
X160250D02*
D03*
X220250Y142500D02*
D03*
X204750D02*
D03*
D27*
X208500Y177500D02*
D03*
X181500D02*
D03*
D28*
X152500Y167000D02*
D03*
Y188000D02*
D03*
X222500Y82000D02*
D03*
Y103000D02*
D03*
D29*
X207000Y55000D02*
D03*
X228000D02*
D03*
D30*
X216500Y26900D02*
D03*
X191100D02*
D03*
X165700D02*
D03*
X140300D02*
D03*
X254600Y179300D02*
D03*
Y204700D02*
D03*
Y153900D02*
D03*
Y128500D02*
D03*
Y103100D02*
D03*
Y77700D02*
D03*
Y52300D02*
D03*
X76800Y179300D02*
D03*
Y204700D02*
D03*
Y153900D02*
D03*
Y128500D02*
D03*
Y103100D02*
D03*
Y77700D02*
D03*
Y52300D02*
D03*
D31*
X114900Y26900D02*
D03*
D32*
X254600D02*
D03*
X76800D02*
D03*
M02*
