G04*
G04 #@! TF.GenerationSoftware,Altium Limited,Altium Designer,18.1.6 (161)*
G04*
G04 Layer_Color=8421504*
%FSLAX44Y44*%
%MOMM*%
G71*
G01*
G75*
%ADD16R,0.6000X1.0000*%
%ADD17R,0.5000X1.3500*%
G04:AMPARAMS|DCode=18|XSize=0.5mm|YSize=1.35mm|CornerRadius=0.125mm|HoleSize=0mm|Usage=FLASHONLY|Rotation=180.000|XOffset=0mm|YOffset=0mm|HoleType=Round|Shape=RoundedRectangle|*
%AMROUNDEDRECTD18*
21,1,0.5000,1.1000,0,0,180.0*
21,1,0.2500,1.3500,0,0,180.0*
1,1,0.2500,-0.1250,0.5500*
1,1,0.2500,0.1250,0.5500*
1,1,0.2500,0.1250,-0.5500*
1,1,0.2500,-0.1250,-0.5500*
%
%ADD18ROUNDEDRECTD18*%
%ADD19R,0.8000X0.9500*%
%ADD20R,1.5000X4.2000*%
%ADD21R,1.4000X0.7500*%
%ADD22R,0.7500X1.4000*%
D16*
X162000Y97000D02*
D03*
X143000D02*
D03*
X152500Y73000D02*
D03*
X125050Y96900D02*
D03*
X106050D02*
D03*
X115550Y72900D02*
D03*
D17*
X185250Y77750D02*
D03*
D18*
X191750D02*
D03*
X198250D02*
D03*
X204750D02*
D03*
X185250Y122250D02*
D03*
X191750D02*
D03*
X198250D02*
D03*
X204750D02*
D03*
D19*
X144750Y55000D02*
D03*
X160250D02*
D03*
X144750Y112500D02*
D03*
X160250D02*
D03*
X124100Y55000D02*
D03*
X108600D02*
D03*
X108600Y112500D02*
D03*
X124100D02*
D03*
X144750Y142500D02*
D03*
X160250D02*
D03*
X174750D02*
D03*
X190250D02*
D03*
X192750Y55000D02*
D03*
X177250D02*
D03*
X144750Y127500D02*
D03*
X160250D02*
D03*
X220250Y142500D02*
D03*
X204750D02*
D03*
D20*
X208500Y177500D02*
D03*
X181500D02*
D03*
D21*
X152500Y167000D02*
D03*
Y188000D02*
D03*
X222500Y82000D02*
D03*
Y103000D02*
D03*
D22*
X207000Y55000D02*
D03*
X228000D02*
D03*
M02*
