M48
;Layer_Color=9474304
;FILE_FORMAT=4:4
METRIC,LZ
;TYPE=PLATED
T1F00S00C0.2500
T2F00S00C1.0000
%
T01
X000975Y000969
X00135Y000825
X001375Y001275
X001375Y001425
X00131128Y0017
X001525Y0019525
X00168441Y001275
X00175Y001325
X0017Y00095611
X0018525Y0009
X00178Y0012225
X00212
X002225Y0011025
X0022075Y00055
T02
X000768Y000269
Y000523
Y000777
Y001031
Y001285
Y001539
Y001793
Y002047
X001149Y000269
X001403
X001657
X001911
X002165
X002546
Y000523
Y000777
Y001031
Y001285
Y001539
Y001793
Y002047
M30
