M48
;Layer_Color=9474304
;FILE_FORMAT=4:2
METRIC,LZ
;TYPE=PLATED
T1F00S00C0.25
T2F00S00C1.00
%
T01
X000975Y000969
X00135Y000825
X001375Y001275
X001375Y001425
X001311Y0017
X001525Y001952
X001684Y001275
X00175Y001325
X0017Y000956
X001852Y0009
X00178Y001223
X00212
X002225Y001102
X002208Y00055
T02
X000768Y000269
Y000523
Y000777
Y001031
Y001285
Y001539
Y001793
Y002047
X001149Y000269
X001403
X001657
X001911
X002165
X002546
Y000523
Y000777
Y001031
Y001285
Y001539
Y001793
Y002047
M30
